<?xml version="1.0" encoding="utf-8"?>
<!-- Generated by IcoMoon.io -->
<!DOCTYPE svg PUBLIC "-//W3C//DTD SVG 1.1//EN" "http://www.w3.org/Graphics/SVG/1.1/DTD/svg11.dtd">

<svg version="1.1" xmlns="http://www.w3.org/2000/svg" xmlns:xlink="http://www.w3.org/1999/xlink" width="752" height="32" viewBox="0 0 752 32">
<defs>
<g id="icon-mobile">
	<path class="path1" d="M22.203 0h-12.406c-1.797 0-3.266 1.469-3.266 3.266v25.469c0 1.795 1.469 3.266 3.266 3.266h12.406c1.797 0 3.266-1.47 3.266-3.266v-25.469c0-1.797-1.469-3.266-3.266-3.266zM16 30.694c-1.261 0-2.285-0.731-2.285-1.634s1.024-1.634 2.285-1.634c1.262 0 2.285 0.731 2.285 1.634s-1.022 1.634-2.285 1.634zM22.856 25.795h-13.714v-21.55h13.714v21.55z" />
</g>
<g id="icon-mail">
	<path class="path1" d="M2.55 8.458c0.781 0.421 11.598 6.23 12.002 6.446 0.402 0.216 0.923 0.32 1.448 0.32 0.526 0 1.048-0.104 1.45-0.322 0.403-0.216 11.219-6.026 12-6.446 0.782-0.419 1.522-1.736 0.086-1.736h-27.070c-1.435 0-0.698 1.317 0.085 1.738zM29.781 11.658c-0.888 0.464-11.787 6.162-12.331 6.446s-0.923 0.322-1.45 0.322c-0.525 0-0.904-0.037-1.448-0.322s-11.445-5.984-12.331-6.446c-0.626-0.326-0.621 0.056-0.621 0.35 0 0.294 0 11.736 0 11.736 0 0.672 0.894 1.536 1.587 1.536h25.627c0.694 0 1.586-0.864 1.586-1.534 0 0 0-11.442 0-11.736 0-0.296 0.006-0.678-0.619-0.352z" />
</g>
<g id="icon-browser">
	<path class="path1" d="M28.8 3.2h-25.6c-1.76 0-3.2 1.44-3.2 3.2v19.2c0 1.762 1.44 3.2 3.2 3.2h25.6c1.76 0 3.2-1.438 3.2-3.2v-19.2c0-1.76-1.44-3.2-3.2-3.2zM7.36 6.192c0.664 0 1.2 0.522 1.2 1.166 0 0.646-0.536 1.168-1.2 1.168s-1.2-0.522-1.2-1.166c0-0.646 0.538-1.168 1.2-1.168zM2.96 7.36c0-0.645 0.536-1.166 1.2-1.166s1.2 0.52 1.2 1.166c0 0.646-0.536 1.168-1.2 1.168s-1.2-0.523-1.2-1.168zM28.832 25.6h-25.664v-14.72h25.664v14.72zM28.832 8.32h-19.232v-1.92h19.232v1.92z" />
</g>
<g id="icon-document">
	<path class="path1" d="M24 1.6h-16c-1.76 0-3.2 1.44-3.2 3.2v22.4c0 1.76 1.44 3.2 3.2 3.2h16c1.76 0 3.2-1.44 3.2-3.2v-22.4c0-1.76-1.44-3.2-3.2-3.2zM24 27.2h-16v-22.4h16v22.4z" />
</g>
<g id="icon-docs">
	<path class="path1" d="M31.037 11.862l-11.912-3.19-2.085-7.779c-0.174-0.65-0.87-1.029-1.555-0.845l-14.52 3.89c-0.685 0.182-1.098 0.859-0.925 1.509l5.166 19.283c0.174 0.65 0.87 1.029 1.554 0.845l5.781-1.549-0.789 2.941c-0.174 0.651 0.238 1.326 0.923 1.51l12.976 3.477c0.685 0.182 1.381-0.195 1.555-0.845l4.754-17.738c0.174-0.65-0.238-1.326-0.923-1.509zM2.614 5.811l12.526-3.354 4.638 17.309-12.528 3.354-4.637-17.309zM25.086 29.544l-10.904-2.982 0.858-3.205 6.242-1.672c0.685-0.184 1.099-0.859 0.925-1.51l-2.413-9.003 9.514 2.61-4.221 15.763z" />
</g>
<g id="icon-landscape">
	<path class="path1" d="M0 8v16c0 1.76 1.44 3.2 3.2 3.2h25.6c1.76 0 3.2-1.44 3.2-3.2v-16c0-1.76-1.44-3.2-3.2-3.2h-25.6c-1.76 0-3.2 1.44-3.2 3.2zM28.8 8v16h-25.6v-16h25.6z" />
</g>
<g id="icon-flow-cascade">
	<path class="path1" d="M22.4 23.36c-1.579 0-2.938 0.957-3.526 2.32h-5.274c-2.259 0-2.47-1.907-2.48-2.48v-6.189c0.69 0.318 1.509 0.509 2.48 0.509h5.274c0.589 1.365 1.947 2.32 3.526 2.32 2.12 0 3.84-1.72 3.84-3.84s-1.72-3.84-3.84-3.84c-1.579 0-2.938 0.957-3.526 2.32h-5.274c-2.259 0-2.47-1.907-2.48-2.48v-3.674c1.365-0.589 2.318-1.947 2.318-3.526 0-2.12-1.718-3.84-3.838-3.84s-3.84 1.72-3.84 3.84c0 1.579 0.957 2.936 2.32 3.526v14.874c0 2.219 1.47 5.52 5.52 5.52h5.274c0.589 1.365 1.947 2.32 3.526 2.32 2.12 0 3.84-1.718 3.84-3.84 0-2.12-1.72-3.84-3.84-3.84zM22.4 13.784c1.224 0 2.216 0.992 2.216 2.216s-0.992 2.216-2.216 2.216-2.216-0.992-2.216-2.216 0.992-2.216 2.216-2.216zM7.384 4.8c0-1.224 0.992-2.216 2.216-2.216s2.216 0.992 2.216 2.216-0.992 2.216-2.216 2.216-2.216-0.992-2.216-2.216zM22.4 29.416c-1.224 0-2.216-0.992-2.216-2.216s0.992-2.216 2.216-2.216 2.216 0.992 2.216 2.216-0.992 2.216-2.216 2.216z" />
</g>
<g id="icon-flow-branch">
	<path class="path1" d="M26.24 6.4c0-2.12-1.718-3.84-3.84-3.84s-3.84 1.72-3.84 3.84c0 1.557 0.928 2.894 2.259 3.498-0.363 3.117-2.371 3.746-5.272 4.651-1.408 0.44-3.045 0.952-4.427 1.947v-6.57c1.365-0.59 2.32-1.947 2.32-3.526 0-2.12-1.72-3.84-3.84-3.84-2.122 0-3.84 1.72-3.84 3.84 0 1.579 0.955 2.936 2.32 3.526v12.149c-1.365 0.587-2.32 1.944-2.32 3.525 0 2.12 1.718 3.84 3.84 3.84 2.12 0 3.84-1.72 3.84-3.84 0-1.557-0.928-2.894-2.261-3.498 0.365-3.117 2.374-3.747 5.274-4.651 2.949-0.922 6.922-2.165 7.414-7.502 1.392-0.579 2.373-1.949 2.373-3.549zM7.384 6.4c0-1.224 0.992-2.216 2.216-2.216s2.216 0.992 2.216 2.216-0.992 2.216-2.216 2.216-2.216-0.992-2.216-2.216zM9.6 27.816c-1.224 0-2.216-0.992-2.216-2.216s0.992-2.216 2.216-2.216 2.216 0.992 2.216 2.216-0.992 2.216-2.216 2.216zM22.4 8.616c-1.222 0-2.216-0.992-2.216-2.216s0.994-2.216 2.216-2.216 2.216 0.992 2.216 2.216-0.994 2.216-2.216 2.216z" />
</g>
<g id="icon-flow-tree">
	<path class="path1" d="M28.718 23.674v-3.674c0-2.219-1.469-5.52-5.518-5.52h-3.2c-2.259 0-2.469-1.107-2.48-1.68v-4.474c1.365-0.59 2.32-1.947 2.32-3.526 0-2.12-1.718-3.84-3.84-3.84-2.122 0-3.84 1.72-3.84 3.84 0 1.579 0.955 2.936 2.32 3.526v4.474c0 0.414-0.12 1.68-2.48 1.68h-3.2c-4.050 0-5.52 3.301-5.52 5.52v3.674c-1.365 0.589-2.32 1.947-2.32 3.526 0 2.12 1.718 3.84 3.84 3.84 2.12 0 3.84-1.72 3.84-3.84 0-1.579-0.955-2.938-2.32-3.526v-3.674c0-0.414 0.12-2.48 2.48-2.48h3.2c0.971 0 1.79-0.147 2.48-0.397v6.55c-1.365 0.589-2.32 1.947-2.32 3.526 0 2.12 1.718 3.84 3.84 3.84 2.122 0 3.84-1.72 3.84-3.84 0-1.579-0.957-2.938-2.322-3.526v-6.55c0.69 0.25 1.509 0.397 2.48 0.397h3.2c2.259 0 2.469 1.907 2.482 2.48v3.674c-1.365 0.589-2.32 1.947-2.32 3.526 0 2.12 1.718 3.84 3.84 3.84s3.84-1.72 3.84-3.84c0-1.579-0.955-2.938-2.322-3.526zM7.016 27.2c0 1.224-0.992 2.216-2.216 2.216s-2.216-0.992-2.216-2.216 0.992-2.216 2.216-2.216 2.216 0.992 2.216 2.216zM13.784 4.8c0-1.224 0.994-2.216 2.216-2.216s2.214 0.992 2.214 2.216-0.992 2.216-2.214 2.216c-1.222 0-2.216-0.992-2.216-2.216zM18.216 27.2c0 1.224-0.994 2.216-2.214 2.216-1.224 0-2.216-0.992-2.216-2.216s0.992-2.216 2.214-2.216c1.222 0 2.216 0.992 2.216 2.216zM27.2 29.416c-1.222 0-2.216-0.992-2.216-2.216s0.994-2.216 2.216-2.216 2.216 0.992 2.216 2.216-0.994 2.216-2.216 2.216z" />
</g>
<g id="icon-flow-line">
	<path class="path1" d="M17.52 22.074v-12.149c1.365-0.589 2.32-1.946 2.32-3.525 0-2.122-1.72-3.84-3.84-3.84s-3.84 1.718-3.84 3.84c0 1.579 0.957 2.936 2.32 3.525v12.149c-1.365 0.589-2.32 1.946-2.32 3.526 0 2.12 1.72 3.84 3.84 3.84s3.84-1.72 3.84-3.84c0-1.581-0.955-2.938-2.32-3.526zM13.784 6.4c0-1.224 0.992-2.216 2.216-2.216s2.216 0.992 2.216 2.216-0.992 2.216-2.216 2.216-2.216-0.992-2.216-2.216zM16 27.816c-1.224 0-2.216-0.992-2.216-2.216s0.992-2.216 2.216-2.216 2.216 0.992 2.216 2.216-0.992 2.216-2.216 2.216z" />
</g>
<g id="icon-flow-parallel">
	<path class="path1" d="M13.44 6.4c0-2.122-1.72-3.84-3.84-3.84-2.12 0-3.84 1.718-3.84 3.84 0 1.579 0.955 2.936 2.32 3.525v12.149c-1.365 0.589-2.32 1.946-2.32 3.526 0 2.12 1.72 3.84 3.84 3.84 2.122 0 3.84-1.72 3.84-3.84 0-1.581-0.957-2.938-2.32-3.526v-12.149c1.365-0.589 2.32-1.946 2.32-3.525zM11.816 25.6c0 1.224-0.992 2.216-2.216 2.216-1.222 0-2.214-0.992-2.214-2.216s0.992-2.216 2.214-2.216c1.224 0 2.216 0.992 2.216 2.216zM9.6 8.616c-1.222 0-2.214-0.992-2.214-2.216s0.992-2.216 2.214-2.216c1.224 0 2.216 0.992 2.216 2.216s-0.992 2.216-2.216 2.216zM23.922 22.074v-12.149c1.363-0.589 2.318-1.946 2.318-3.525 0-2.122-1.718-3.84-3.84-3.84-2.118 0-3.84 1.718-3.84 3.84 0 1.579 0.957 2.936 2.322 3.525v12.149c-1.366 0.589-2.322 1.946-2.322 3.526 0 2.12 1.722 3.84 3.84 3.84 2.122 0 3.84-1.72 3.84-3.84 0-1.581-0.955-2.938-2.318-3.526zM20.184 6.4c0-1.224 0.994-2.216 2.216-2.216 1.226 0 2.216 0.992 2.216 2.216s-0.99 2.216-2.216 2.216c-1.222 0-2.216-0.992-2.216-2.216zM22.4 27.816c-1.222 0-2.216-0.992-2.216-2.216s0.994-2.216 2.216-2.216c1.226 0 2.216 0.992 2.216 2.216s-0.99 2.216-2.216 2.216z" />
</g>
<g id="icon-arrow-left">
	<path class="path1" d="M18.299 7.226c-0.669 0.653-7.203 7.514-7.203 7.514-0.357 0.349-0.534 0.805-0.534 1.261s0.178 0.912 0.534 1.261c0 0 6.534 6.861 7.203 7.512 0.669 0.653 1.872 0.698 2.586 0 0.712-0.696 0.768-1.667-0.002-2.52l-5.995-6.253 5.995-6.253c0.77-0.854 0.714-1.826 0.002-2.522-0.715-0.696-1.918-0.653-2.586 0z" />
</g>
<g id="icon-arrow-down">
	<path class="path1" d="M24.773 13.701c-0.651 0.669-7.512 7.205-7.512 7.205-0.349 0.357-0.805 0.534-1.261 0.534-0.458 0-0.914-0.178-1.261-0.534 0 0-6.861-6.536-7.514-7.205-0.651-0.669-0.696-1.87 0-2.586 0.698-0.714 1.669-0.77 2.522 0l6.253 5.997 6.251-5.995c0.854-0.77 1.827-0.714 2.522 0 0.698 0.714 0.654 1.917 0 2.584z" />
</g>
<g id="icon-arrow-up">
	<path class="path1" d="M24.773 18.299c-0.651-0.669-7.512-7.203-7.512-7.203-0.349-0.357-0.805-0.536-1.261-0.536-0.458 0-0.914 0.179-1.261 0.536 0 0-6.861 6.534-7.514 7.203-0.651 0.669-0.696 1.872 0 2.586 0.698 0.712 1.669 0.77 2.522 0l6.253-5.995 6.251 5.995c0.854 0.77 1.827 0.712 2.522 0 0.698-0.715 0.654-1.918 0-2.586z" />
</g>
<g id="icon-arrow-right">
	<path class="path1" d="M13.701 7.226c0.669 0.653 7.203 7.514 7.203 7.514 0.358 0.349 0.536 0.805 0.536 1.261s-0.178 0.912-0.536 1.261c0 0-6.534 6.861-7.203 7.512-0.669 0.653-1.87 0.698-2.586 0-0.714-0.696-0.77-1.667 0-2.52l5.997-6.253-5.995-6.253c-0.77-0.854-0.714-1.826 0-2.522 0.714-0.696 1.917-0.653 2.584 0z" />
</g>
<g id="icon-ellipsis">
	<path class="path1" d="M4.8 12.48c-1.944 0-3.52 1.576-3.52 3.52s1.576 3.52 3.52 3.52 3.52-1.576 3.52-3.52c0-1.944-1.576-3.52-3.52-3.52zM16 12.48c-1.944 0-3.52 1.576-3.52 3.52s1.576 3.52 3.52 3.52 3.518-1.576 3.518-3.52c0-1.944-1.574-3.52-3.518-3.52zM27.2 12.48c-1.944 0-3.52 1.576-3.52 3.52s1.576 3.52 3.52 3.52 3.52-1.576 3.52-3.52c0-1.944-1.576-3.52-3.52-3.52z" />
</g>
</defs>

<g fill="#000000">
	<use xlink:href="#icon-mobile" transform="translate(0 0)"></use>
	<use xlink:href="#icon-mail" transform="translate(48 0)"></use>
	<use xlink:href="#icon-browser" transform="translate(96 0)"></use>
	<use xlink:href="#icon-document" transform="translate(144 0)"></use>
	<use xlink:href="#icon-docs" transform="translate(192 0)"></use>
	<use xlink:href="#icon-landscape" transform="translate(240 0)"></use>
	<use xlink:href="#icon-flow-cascade" transform="translate(288 0)"></use>
	<use xlink:href="#icon-flow-branch" transform="translate(336 0)"></use>
	<use xlink:href="#icon-flow-tree" transform="translate(384 0)"></use>
	<use xlink:href="#icon-flow-line" transform="translate(432 0)"></use>
	<use xlink:href="#icon-flow-parallel" transform="translate(480 0)"></use>
	<use xlink:href="#icon-arrow-left" transform="translate(528 0)"></use>
	<use xlink:href="#icon-arrow-down" transform="translate(576 0)"></use>
	<use xlink:href="#icon-arrow-up" transform="translate(624 0)"></use>
	<use xlink:href="#icon-arrow-right" transform="translate(672 0)"></use>
	<use xlink:href="#icon-ellipsis" transform="translate(720 0)"></use>
</g>

</svg>
